<svg width="24" height="24" viewBox="0 0 24 24" fill="none" xmlns="http://www.w3.org/2000/svg">
  <path d="M22.8985 0.934844C22.7371 0.77312 22.5454 0.644813 22.3344 0.55727C22.1233 0.469727 21.8971 0.424665 21.6686 0.424665C21.4401 0.424665 21.2139 0.469727 21.0029 0.55727C20.7918 0.644813 20.6001 0.77312 20.4387 0.934844L11.908 9.44817L3.37719 0.917398C3.21568 0.755886 3.02394 0.627767 2.81291 0.540358C2.60188 0.452948 2.37571 0.407959 2.1473 0.407959C1.91888 0.407959 1.69271 0.452948 1.48168 0.540358C1.27065 0.627767 1.07891 0.755886 0.917398 0.917398C0.755886 1.07891 0.627767 1.27065 0.540358 1.48168C0.452948 1.69271 0.407959 1.91888 0.407959 2.1473C0.407959 2.37571 0.452948 2.60188 0.540358 2.81291C0.627767 3.02394 0.755886 3.21568 0.917398 3.37719L9.44817 11.908L0.917398 20.4387C0.755886 20.6002 0.627767 20.792 0.540358 21.003C0.452948 21.214 0.407959 21.4402 0.407959 21.6686C0.407959 21.897 0.452948 22.1232 0.540358 22.3342C0.627767 22.5453 0.755886 22.737 0.917398 22.8985C1.07891 23.06 1.27065 23.1882 1.48168 23.2756C1.69271 23.363 1.91888 23.408 2.1473 23.408C2.37571 23.408 2.60188 23.363 2.81291 23.2756C3.02394 23.1882 3.21568 23.06 3.37719 22.8985L11.908 14.3678L20.4387 22.8985C20.6002 23.06 20.792 23.1882 21.003 23.2756C21.214 23.363 21.4402 23.408 21.6686 23.408C21.897 23.408 22.1232 23.363 22.3342 23.2756C22.5453 23.1882 22.737 23.06 22.8985 22.8985C23.06 22.737 23.1882 22.5453 23.2756 22.3342C23.363 22.1232 23.408 21.897 23.408 21.6686C23.408 21.4402 23.363 21.214 23.2756 21.003C23.1882 20.792 23.06 20.6002 22.8985 20.4387L14.3678 11.908L22.8985 3.37719C23.5614 2.71427 23.5614 1.59777 22.8985 0.934844Z" fill="#F8F8F8"/>
</svg>
